HIERARCHY
ROOT Hips
{
	OFFSET 0.000000 0.000000 0.000000
	CHANNELS 6 Xposition Yposition Zposition Zrotation Yrotation Xrotation 
	JOINT LHipJoint
	{
		OFFSET 0.000000 0.000000 0.000000
		CHANNELS 3 Zrotation Yrotation Xrotation
		JOINT LeftUpLeg
		{
			OFFSET 1.363060 -1.794630 0.839290
			CHANNELS 3 Zrotation Yrotation Xrotation
			JOINT LeftLeg
			{
				OFFSET 2.448110 -6.726130 0.000000
				CHANNELS 3 Zrotation Yrotation Xrotation
				JOINT LeftFoot
				{
					OFFSET 2.562200 -7.039590 0.000000
					CHANNELS 3 Zrotation Yrotation Xrotation
					JOINT LeftToeBase
					{
						OFFSET 0.157640 -0.433110 2.322550
						CHANNELS 3 Zrotation Yrotation Xrotation
						End Site
						{
							OFFSET 0.000000 0.000000 0.000000
						}
					}
				}
			}
		}
	}
	JOINT RHipJoint
	{
		OFFSET 0.000000 0.000000 0.000000
		CHANNELS 3 Zrotation Yrotation Xrotation
		JOINT RightUpLeg
		{
			OFFSET -1.305520 -1.794630 0.839290
			CHANNELS 3 Zrotation Yrotation Xrotation
			JOINT RightLeg
			{
				OFFSET -2.542530 -6.985550 0.000000
				CHANNELS 3 Zrotation Yrotation Xrotation
				JOINT RightFoot
				{
					OFFSET -2.568260 -7.056230 0.000000
					CHANNELS 3 Zrotation Yrotation Xrotation
					JOINT RightToeBase
					{
						OFFSET -0.164730 -0.452590 2.363150
						CHANNELS 3 Zrotation Yrotation Xrotation
						End Site
						{
							OFFSET 0.000000 0.000000 0.000000
						}
					}
				}
			}
		}
	}
	JOINT LowerBack
	{
		OFFSET 0.000000 0.000000 0.000000
		CHANNELS 3 Zrotation Yrotation Xrotation
		JOINT Spine
		{
			OFFSET 0.028270 2.035590 -0.193380
			CHANNELS 3 Zrotation Yrotation Xrotation
			JOINT Spine1
			{
				OFFSET 0.056720 2.048850 -0.042750
				CHANNELS 3 Zrotation Yrotation Xrotation
				JOINT Neck
				{
					OFFSET 0.000000 0.000000 0.000000
					CHANNELS 3 Zrotation Yrotation Xrotation
					JOINT Neck1
					{
						OFFSET -0.054170 1.746240 0.172020
						CHANNELS 3 Zrotation Yrotation Xrotation
						JOINT Head
						{
							OFFSET 0.104070 1.761360 -0.123970
							CHANNELS 3 Zrotation Yrotation Xrotation
							End Site
							{
								OFFSET 0.000000 0.000000 0.000000
							}
						}
					}
				}
				JOINT LeftShoulder
				{
					OFFSET 0.000000 0.000000 0.000000
					CHANNELS 3 Zrotation Yrotation Xrotation
					JOINT LeftArm
					{
						OFFSET 3.362410 1.200890 -0.311210
						CHANNELS 3 Zrotation Yrotation Xrotation
						JOINT LeftForeArm
						{
							OFFSET 4.983000 -0.000000 -0.000000
							CHANNELS 3 Zrotation Yrotation Xrotation
							JOINT LeftHand
							{
								OFFSET 3.483560 -0.000000 -0.000000
								CHANNELS 3 Zrotation Yrotation Xrotation
								JOINT LeftFingerBase
								{
									OFFSET 0.000000 0.000000 0.000000
									CHANNELS 3 Zrotation Yrotation Xrotation
									JOINT LeftHandIndex1
									{
										OFFSET 0.715260 -0.000000 -0.000000
										CHANNELS 3 Zrotation Yrotation Xrotation
										End Site
										{
											OFFSET 0.000000 0.000000 0.000000
										}
									}
								}
								JOINT LThumb
								{
									OFFSET 0.000000 0.000000 0.000000
									CHANNELS 3 Zrotation Yrotation Xrotation
									End Site
									{
										OFFSET 0.000000 0.000000 0.000000
									}
								}
							}
						}
					}
				}
				JOINT RightShoulder
				{
					OFFSET 0.000000 0.000000 0.000000
					CHANNELS 3 Zrotation Yrotation Xrotation
					JOINT RightArm
					{
						OFFSET -3.136600 1.374050 -0.404650
						CHANNELS 3 Zrotation Yrotation Xrotation
						JOINT RightForeArm
						{
							OFFSET -5.241900 -0.000000 -0.000000
							CHANNELS 3 Zrotation Yrotation Xrotation
							JOINT RightHand
							{
								OFFSET -3.444170 -0.000000 -0.000000
								CHANNELS 3 Zrotation Yrotation Xrotation
								JOINT RightFingerBase
								{
									OFFSET 0.000000 0.000000 0.000000
									CHANNELS 3 Zrotation Yrotation Xrotation
									JOINT RightHandIndex1
									{
										OFFSET -0.622530 -0.000000 -0.000000
										CHANNELS 3 Zrotation Yrotation Xrotation
										End Site
										{
											OFFSET 0.000000 0.000000 0.000000
										}
									}
								}
								JOINT RThumb
								{
									OFFSET 0.000000 0.000000 0.000000
									CHANNELS 3 Zrotation Yrotation Xrotation
									End Site
									{
										OFFSET 0.000000 0.000000 0.000000
									}
								}
							}
						}
					}
				}
			}
		}
	}
}
MOTION
Frames: 5
Frame Time: 0.008333
12.267949 15.364146 1.262600 -54.739315 -88.200446 93.851691 -8.066129 -2.243603 0.864456 -11.440106 -7.869807 -85.169878 -1.273764 4.156952 49.797542 0.165967 -0.280621 0.281781 0.312500 -0.000000 -37.221900 8.111811 0.837052 1.492029 12.826328 6.487541 -85.416265 2.027058 -5.782516 49.098314 1.021095 5.396227 4.592410 0.851600 -0.000000 -71.774501 -0.547440 -0.681188 1.327397 -0.792994 -0.618575 -2.342922 -4.737307 -0.477270 -0.001950 1.623805 -1.372919 5.591106 -2.475869 -0.321097 3.216619 0.000000 0.000000 0.000000 9.879792 11.999593 -3.168473 -62.718381 -47.524588 -8.155086 179.786715 -54.392401 179.710874 20.294610 -8.017385 -1.675558 -0.563093 1.078626 -0.000000 0.000000 0.000000 0.000000 0.000000 0.000000 0.000000 -5.171200 -5.702981 -5.678940 59.035774 48.612101 -15.658278 -177.909043 50.434829 179.740951 -17.418861 25.925105 -4.333627 0.243966 -1.368935 -0.000000 0.000000 0.000000 0.000000 0.000000 0.000000 0.000000 
12.093062 15.020573 1.241138 -49.393541 -88.152279 87.946971 -8.021772 -2.593659 0.741826 -10.821439 -8.509176 -86.684739 -0.844570 4.508460 55.737201 0.495644 0.523416 -5.221962 0.243900 0.000000 -31.216200 7.980634 1.181351 1.306995 11.923438 6.965804 -87.079097 1.368676 -6.172797 55.417347 0.770608 4.979192 -0.227542 0.507000 0.000000 -67.970800 -0.577288 -0.678839 1.611835 -0.809603 -0.611332 -2.394487 -4.831585 -0.463502 -0.421292 1.938960 -0.851251 5.683939 -2.465133 -0.322387 3.250898 0.000000 0.000000 0.000000 9.763702 10.801049 -3.085970 -63.913234 -46.435804 -7.687247 179.763588 -55.114742 179.711014 20.320312 -8.361793 -1.741585 -0.552274 1.083480 -0.000000 0.000000 0.000000 0.000000 0.000000 0.000000 0.000000 -5.023884 -4.776812 -5.516667 61.045571 46.939779 -14.499565 -177.861335 51.502503 179.737677 -17.482425 25.806364 -4.324611 0.232298 -1.354100 -0.000000 0.000000 0.000000 0.000000 0.000000 0.000000 0.000000 
11.923630 14.683398 1.219161 -44.571375 -88.083414 82.595880 -7.993544 -2.960680 0.595329 -10.237894 -9.123161 -88.250324 -0.408621 4.862639 61.647010 0.862627 1.462418 -10.445323 0.019000 -0.000001 -25.856201 7.863497 1.562233 1.119958 11.089940 7.460974 -88.737446 0.719737 -6.513180 61.641104 0.478510 4.376737 -4.883097 0.223800 0.000000 -64.231900 -0.597715 -0.671986 1.938213 -0.824974 -0.598802 -2.439554 -4.930590 -0.445548 -0.859564 2.255076 -0.334539 5.764401 -2.465711 -0.323956 3.279890 0.000000 0.000000 0.000000 9.576658 9.557236 -2.990042 -65.014068 -45.342942 -7.325050 179.744864 -55.943965 179.712051 20.299799 -8.813310 -1.823506 -0.538665 1.089773 -0.000000 0.000000 0.000000 0.000000 0.000000 0.000000 0.000000 -4.757472 -3.856046 -5.338741 62.967637 45.303317 -13.420411 -177.825262 52.717408 179.735110 -17.476453 25.795066 -4.315396 0.217200 -1.339167 -0.000000 0.000000 0.000000 0.000000 0.000000 0.000000 0.000000 
11.760300 14.357748 1.196934 -40.387119 -87.992057 77.924932 -7.984019 -3.337325 0.425541 -9.689367 -9.695721 -89.821214 0.045514 5.216439 67.383913 1.243416 2.519673 -15.153017 -0.354100 -0.000000 -21.785000 7.764718 1.958390 0.930064 10.350862 7.971499 -90.345061 0.079534 -6.813568 67.619997 0.153071 3.566983 -9.179307 0.043600 0.000001 -60.939100 -0.602483 -0.661340 2.310070 -0.839296 -0.581940 -2.475211 -5.036934 -0.424227 -1.307707 2.574125 0.171804 5.826822 -2.480554 -0.325820 3.301509 0.000000 0.000000 0.000000 9.297526 8.279519 -2.878990 -66.020199 -44.266779 -7.054703 179.734710 -56.902664 179.714506 20.203717 -9.299573 -1.904027 -0.521791 1.094759 -0.000000 0.000000 0.000000 0.000000 0.000000 0.000000 0.000000 -4.348496 -2.949446 -5.143717 64.803306 43.713139 -12.419348 -177.804885 54.112056 179.733285 -17.417590 25.868771 -4.306185 0.199284 -1.322720 -0.000000 0.000000 0.000000 0.000000 0.000000 0.000000 0.000000 
11.603460 14.048224 1.174556 -36.845071 -87.882025 73.952521 -7.991761 -3.715885 0.235622 -9.176592 -10.215994 -91.356650 0.523998 5.563539 72.828938 1.612363 3.655345 -19.198543 -0.842800 -0.000000 -19.353100 7.684653 2.352567 0.737199 9.713332 8.494316 -91.867131 -0.555880 -7.080299 73.238427 -0.194999 2.544734 -12.978041 -0.005501 0.000000 -58.459600 -0.592575 -0.648499 2.726268 -0.853754 -0.562458 -2.499427 -5.151024 -0.401251 -1.755362 2.897697 0.658301 5.863016 -2.511766 -0.327934 3.313144 0.000000 0.000000 0.000000 8.914031 6.982866 -2.752493 -66.937256 -43.219979 -6.860264 179.733408 -58.021678 179.718671 20.017614 -9.744696 -1.966155 -0.501465 1.095647 -0.000000 0.000000 0.000000 0.000000 0.000000 0.000000 0.000000 -3.778024 -2.070811 -4.930572 66.549528 42.183521 -11.504784 -177.804101 55.725204 179.732242 -17.322403 25.991888 -4.294982 0.179180 -1.303085 -0.000000 0.000000 0.000000 0.000000 0.000000 0.000000 0.000000 
